<?xml version="1.0" encoding="UTF-8" standalone="no"?><!DOCTYPE svg PUBLIC "-//W3C//DTD SVG 1.1//EN" "http://www.w3.org/Graphics/SVG/1.1/DTD/svg11.dtd"><svg width="100%" height="100%" viewBox="0 0 81 43" version="1.1" xmlns="http://www.w3.org/2000/svg" xmlns:xlink="http://www.w3.org/1999/xlink" xml:space="preserve" xmlns:serif="http://www.serif.com/" style="fill-rule:evenodd;clip-rule:evenodd;stroke-linejoin:round;stroke-miterlimit:2;"><path d="M0,24.258l6.089,0l3.41,-16.786l-6.091,-0l-3.408,16.786Z" style="fill:#fff;fill-rule:nonzero;"/><path d="M3.947,4.836l6.087,-0l0.982,-4.836l-6.094,0l-0.975,4.836Z" style="fill:#fff;fill-rule:nonzero;"/><path d="M8.498,28.985l6.09,0l3.695,-18.167l4.444,0l0.699,-3.346l-4.481,-0l0.154,-0.776c0.286,-1.431 0.751,-3.096 3.047,-3.096c1.361,0 2.665,0.148 3.93,0.68l0.693,-3.536c-1.408,-0.494 -2.893,-0.745 -4.388,-0.744c-4.894,0 -8.265,2.914 -9.499,7.472l-2.114,-0l-0.662,3.346l2.084,0l-3.692,18.167Z" style="fill:#fff;fill-rule:nonzero;"/><path d="M27.79,24.633c7.191,-0 12.181,-6.569 12.181,-11.927c-0.001,-3.902 -3.689,-5.608 -7.196,-5.608c-7.89,-0 -12.183,7.063 -12.183,11.927c-0,3.902 3.726,5.608 7.198,5.608Z" style="fill:#fff;fill-rule:nonzero;"/><path d="M47.001,24.633c7.191,-0 12.18,-6.569 12.18,-11.927c0,-3.902 -3.696,-5.608 -7.199,-5.608c-7.886,-0 -12.186,7.063 -12.186,11.927c-0,3.902 3.73,5.608 7.202,5.608" style="fill:#fff;fill-rule:nonzero;"/><path d="M69.082,24.258l6.055,-0l4.863,-23.884l-6.09,0l-1.451,7.097c-0.809,-0.175 -1.633,-0.269 -2.461,-0.281c-5.965,-0 -11.39,7.588 -11.39,13.011c-0,2.231 1.45,4.431 3.912,4.431c3.499,-0 5.921,-1.713 6.932,-3.318l0.378,-0l-0.748,2.944Z" style="fill:#fff;fill-rule:nonzero;"/><path d="M50.322,36.91c-4.454,3.792 -10.408,5.739 -16.879,5.337c-8.159,-0.502 -13.816,-6.819 -14.954,-13.227l0.387,-0c1.836,4.091 6.304,7.869 11.911,8.49c5.475,0.604 12.184,-1.87 15.866,-5.402l-4.13,-3.124l12.264,0.036l-2.64,12.983l-1.825,-5.093Z" style="fill:#fff;fill-rule:nonzero;"/></svg>